<svg width="20" height="30" viewBox="0 0 20 30" fill="none" xmlns="http://www.w3.org/2000/svg">
<g clip-path="url(#clip0_32_261)">
<path d="M2.53752 8.2688C2.72502 6.3438 3.53127 4.73755 4.95627 3.45005C6.38127 2.16255 8.06253 1.5188 10 1.5188C11.9375 1.5188 13.6188 2.16255 15.0438 3.45005C16.4688 4.73755 17.275 6.3438 17.4625 8.2688H15.2125C15.0375 6.9688 14.4563 5.8938 13.4688 5.0438C12.4813 4.1938 11.325 3.7688 10 3.7688C8.67502 3.7688 7.51877 4.1938 6.53128 5.0438C5.54378 5.8938 4.96252 6.9688 4.78752 8.2688H2.53752ZM2.53752 9.7688H4.78752C4.93752 10.9438 5.42503 11.9375 6.25003 12.75C7.07503 13.5625 8.07503 14.0563 9.25002 14.2313V16.4813C7.46253 16.3063 5.94053 15.5905 4.68403 14.334C3.42753 13.0775 2.71202 11.5558 2.53752 9.7688ZM10.75 14.2313C11.925 14.0563 12.925 13.5625 13.75 12.75C14.575 11.9375 15.0625 10.9438 15.2125 9.7688H17.4625C17.2875 11.5563 16.5718 13.0783 15.3153 14.3348C14.0588 15.5913 12.537 16.3068 10.75 16.4813V14.2313Z" fill="black"/>
</g>
<g clip-path="url(#clip1_32_261)">
<path fill-rule="evenodd" clip-rule="evenodd" d="M19.9369 11.3519C19.9369 10.6106 19.2423 10.0098 18.3854 10.0098H1.55149C0.694614 10.0098 0 10.6106 0 11.3519V21.3669C0 26.1295 4.46306 29.9902 9.9685 29.9902C15.4739 29.9902 19.9369 26.1295 19.9369 21.3669V11.3519ZM11.2586 19.7111L11.6896 19.4629C12.5286 18.9797 13.0792 18.1559 13.0792 17.2211C13.0792 15.7351 11.6866 14.5304 9.96871 14.5304C8.25086 14.5304 6.85823 15.7351 6.85823 17.2211C6.85823 18.1559 7.40871 18.9797 8.24771 19.4629L8.67879 19.7111L7.09701 23.5608H12.8404L11.2586 19.7111Z" fill="#5CC758"/>
<path fill-rule="evenodd" clip-rule="evenodd" d="M19.9369 11.3519C19.9369 10.6106 19.2423 10.0098 18.3854 10.0098H1.55149C0.694614 10.0098 0 10.6106 0 11.3519V21.3669C0 26.1295 4.46306 29.9902 9.9685 29.9902C15.4739 29.9902 19.9369 26.1295 19.9369 21.3669V11.3519ZM11.2586 19.7111L11.6896 19.4629C12.5286 18.9797 13.0792 18.1559 13.0792 17.2211C13.0792 15.7351 11.6866 14.5304 9.96871 14.5304C8.25086 14.5304 6.85823 15.7351 6.85823 17.2211C6.85823 18.1559 7.40871 18.9797 8.24771 19.4629L8.67879 19.7111L7.09701 23.5608H12.8404L11.2586 19.7111Z" fill="url(#paint0_linear_32_261)"/>
</g>
<defs>
<linearGradient id="paint0_linear_32_261" x1="14.2206" y1="33.5942" x2="0.427182" y2="5.72821" gradientUnits="userSpaceOnUse">
<stop stop-color="#C8FFC6"/>
<stop offset="0.686198" stop-color="#FCE61A" stop-opacity="0"/>
</linearGradient>
<clipPath id="clip0_32_261">
<rect width="18" height="9" fill="white" transform="translate(1)"/>
</clipPath>
<clipPath id="clip1_32_261">
<rect width="20" height="20" fill="white" transform="translate(0 10)"/>
</clipPath>
</defs>
</svg>
