<svg width="32" height="29" viewBox="0 0 32 29" fill="none" xmlns="http://www.w3.org/2000/svg">
<g clip-path="url(#clip0_32_275)">
<path d="M1.53752 8.2688C1.72502 6.3438 2.53127 4.73755 3.95627 3.45005C5.38127 2.16255 7.06253 1.5188 9.00003 1.5188C10.9375 1.5188 12.6188 2.16255 14.0438 3.45005C15.4688 4.73755 16.275 6.3438 16.4625 8.2688H14.2125C14.0375 6.9688 13.4563 5.8938 12.4688 5.0438C11.4813 4.1938 10.325 3.7688 9.00003 3.7688C7.67502 3.7688 6.51877 4.1938 5.53128 5.0438C4.54378 5.8938 3.96252 6.9688 3.78752 8.2688H1.53752ZM1.53752 9.7688H3.78752C3.93752 10.9438 4.42503 11.9375 5.25003 12.75C6.07503 13.5625 7.07503 14.0563 8.25002 14.2313V16.4813C6.46253 16.3063 4.94053 15.5905 3.68403 14.334C2.42753 13.0775 1.71202 11.5558 1.53752 9.7688ZM9.75003 14.2313C10.925 14.0563 11.925 13.5625 12.75 12.75C13.575 11.9375 14.0625 10.9438 14.2125 9.7688H16.4625C16.2875 11.5563 15.5718 13.0783 14.3153 14.3348C13.0588 15.5913 11.537 16.3068 9.75003 16.4813V14.2313Z" fill="black"/>
</g>
<g clip-path="url(#clip1_32_275)">
<path fill-rule="evenodd" clip-rule="evenodd" d="M31.9432 11.2843C31.9432 10.5801 31.3181 10.0093 30.5469 10.0093H15.3963C14.6252 10.0093 14 10.5801 14 11.2843V20.7986C14 25.323 18.0168 28.9907 22.9717 28.9907C27.9265 28.9907 31.9432 25.323 31.9432 20.7986V11.2843ZM24.1328 19.2256L24.5207 18.9898C25.2758 18.5308 25.7713 17.7481 25.7713 16.8601C25.7713 15.4483 24.5179 14.3039 22.9718 14.3039C21.4258 14.3039 20.1724 15.4483 20.1724 16.8601C20.1724 17.7481 20.6678 18.5308 21.4229 18.9898L21.8109 19.2256L20.3873 22.8828H25.5564L24.1328 19.2256Z" fill="#5CC758"/>
<path fill-rule="evenodd" clip-rule="evenodd" d="M31.9432 11.2843C31.9432 10.5801 31.3181 10.0093 30.5469 10.0093H15.3963C14.6252 10.0093 14 10.5801 14 11.2843V20.7986C14 25.323 18.0168 28.9907 22.9717 28.9907C27.9265 28.9907 31.9432 25.323 31.9432 20.7986V11.2843ZM24.1328 19.2256L24.5207 18.9898C25.2758 18.5308 25.7713 17.7481 25.7713 16.8601C25.7713 15.4483 24.5179 14.3039 22.9718 14.3039C21.4258 14.3039 20.1724 15.4483 20.1724 16.8601C20.1724 17.7481 20.6678 18.5308 21.4229 18.9898L21.8109 19.2256L20.3873 22.8828H25.5564L24.1328 19.2256Z" fill="url(#paint0_linear_32_275)"/>
</g>
<defs>
<linearGradient id="paint0_linear_32_275" x1="26.7986" y1="32.4145" x2="13.2708" y2="6.52366" gradientUnits="userSpaceOnUse">
<stop stop-color="#C8FFC6"/>
<stop offset="0.686198" stop-color="#FCE61A" stop-opacity="0"/>
</linearGradient>
<clipPath id="clip0_32_275">
<rect width="18" height="9" fill="white"/>
</clipPath>
<clipPath id="clip1_32_275">
<rect width="18" height="19" fill="white" transform="translate(14 10)"/>
</clipPath>
</defs>
</svg>
