<svg width="30" height="30" viewBox="0 0 30 30" fill="none" xmlns="http://www.w3.org/2000/svg">
<g clip-path="url(#clip0_33_511)">
<path d="M28.2041 5.2041V12.551H20.8571" stroke="#5CC758" stroke-width="2.44898" stroke-linecap="round" stroke-linejoin="round"/>
<path d="M1.2653 24.7959V17.449H8.61224" stroke="#5CC758" stroke-width="2.44898" stroke-linecap="round" stroke-linejoin="round"/>
<path d="M4.33877 11.3265C4.9598 9.57151 6.01526 8.00247 7.40669 6.76575C8.79812 5.52904 10.4802 4.66495 12.2959 4.25413C14.1116 3.8433 16.0017 3.89913 17.79 4.41639C19.5783 4.93366 21.2064 5.8955 22.5224 7.21218L28.2041 12.551M1.2653 17.4489L6.94694 22.7877C8.26295 24.1044 9.89107 25.0662 11.6794 25.5835C13.4676 26.1007 15.3578 26.1566 17.1735 25.7457C18.9892 25.3349 20.6713 24.4708 22.0627 23.2341C23.4541 21.9974 24.5096 20.4284 25.1306 18.6734" stroke="#5CC758" stroke-width="2.44898" stroke-linecap="round" stroke-linejoin="round"/>
</g>
<defs>
<clipPath id="clip0_33_511">
<rect width="29.3878" height="29.3878" fill="white" transform="translate(0.0408173 0.306152)"/>
</clipPath>
</defs>
</svg>
