<svg width="28" height="32" viewBox="0 0 28 32" fill="none" xmlns="http://www.w3.org/2000/svg">
<path fill-rule="evenodd" clip-rule="evenodd" d="M27.9116 2.16303C27.9116 0.977035 26.9392 0.015625 25.7396 0.015625H2.17209C0.97246 0.015625 0 0.977035 0 2.16303V18.1871C0 25.8072 6.24828 31.9844 13.9559 31.9844C21.6635 31.9844 27.9116 25.8072 27.9116 18.1871V2.16303ZM15.7621 15.5378L16.3655 15.1407C17.5401 14.3676 18.3109 13.0495 18.3109 11.5538C18.3109 9.17613 16.3612 7.24863 13.9562 7.24863C11.5512 7.24863 9.60152 9.17613 9.60152 11.5538C9.60152 13.0495 10.3722 14.3676 11.5468 15.1407L12.1503 15.5378L9.93582 21.6973H17.9766L15.7621 15.5378Z" fill="#5CC758"/>
<path fill-rule="evenodd" clip-rule="evenodd" d="M27.9116 2.16303C27.9116 0.977035 26.9392 0.015625 25.7396 0.015625H2.17209C0.97246 0.015625 0 0.977035 0 2.16303V18.1871C0 25.8072 6.24828 31.9844 13.9559 31.9844C21.6635 31.9844 27.9116 25.8072 27.9116 18.1871V2.16303ZM15.7621 15.5378L16.3655 15.1407C17.5401 14.3676 18.3109 13.0495 18.3109 11.5538C18.3109 9.17613 16.3612 7.24863 13.9562 7.24863C11.5512 7.24863 9.60152 9.17613 9.60152 11.5538C9.60152 13.0495 10.3722 14.3676 11.5468 15.1407L12.1503 15.5378L9.93582 21.6973H17.9766L15.7621 15.5378Z" fill="url(#paint0_linear_340_7371)"/>
<defs>
<linearGradient id="paint0_linear_340_7371" x1="19.9089" y1="37.7508" x2="-3.88027" y2="-4.30146" gradientUnits="userSpaceOnUse">
<stop stop-color="#C8FFC6"/>
<stop offset="0.686198" stop-color="#FCE61A" stop-opacity="0"/>
</linearGradient>
</defs>
</svg>
